<?xml version="1.0" encoding="utf-8"?>
<!-- Generator: Adobe Illustrator 21.1.0, SVG Export Plug-In . SVG Version: 6.00 Build 0)  -->
<svg version="1.1" id="Calque_1" xmlns="http://www.w3.org/2000/svg" xmlns:xlink="http://www.w3.org/1999/xlink" x="0px" y="0px"
	 viewBox="0 0 531 531" style="enable-background:new 0 0 531 531;" xml:space="preserve">
<style type="text/css">
	.st0{fill:#30DD2A;}
</style>
<path class="st0" d="M320.6,16c-48.1-10.6-96.1-6.8-139.4,8.4l205.6,142.3l-23-137.2C350.1,23.9,335.7,19.3,320.6,16z M381.6,37.7
	l41.6,244.1L503,169.6C480,113.3,437.3,65.9,381.6,37.7z M164.6,31C107.8,55.5,60.5,100.2,33.6,158.2L282.1,112L164.6,31z
	 M508.5,184.6l-140.8,204l135.1-25.8c5.4-13.3,9.8-27.3,13-41.8l1.2-5.6C525.8,270.2,522.2,225.4,508.5,184.6z M165.2,149.9
	L26.8,174.2c-4.5,11.9-8.3,24.2-11.1,37C5.1,259.7,9,308,24.5,351.6L165.2,149.9z M107.8,257.1L31.6,369.4
	C55.8,424.2,99,470,154.7,496.8L107.8,257.1z M496,378l-242.2,47l111.4,77C421.5,478.2,468.6,434.6,496,378z M146.8,370.7
	l23.4,132.9c13,5.2,26.6,9.4,40.7,12.5c47.9,10.5,95.5,6.8,138.7-8.2L146.8,370.7z"/>
</svg>
